{"title":"Entourage.2015.WEBRip.480p.x264.AAC-VYTO [P2PDL]","uid":12292573,"size":401342954,"categoryP":"video","categoryS":"movies","magnet":"?xt=urn:btih:b5de8d884f6db6223c5bb18582144c5b9597fe3a&amp;dn=Entourage.2015.WEBRip.480p.x264.AAC-VYTO+%5BP2PDL%5D&amp;tr=udp%3A%2F%2Ftracker.openbittorrent.com%3A80&amp;tr=udp%3A%2F%2Fopen.demonii.com%3A1337&amp;tr=udp%3A%2F%2Ftracker.coppersurfer.tk%3A6969&amp;tr=udp%3A%2F%2Fexodus.desync.com%3A6969","seeders":4,"leechers":2,"uploader":"ValidusVyto","files":7,"time":1440577259,"description":"____    ____ ____    ____ .___________.  ______   \n     /   /      /   / |           | /  __    \n    /   /      /   /  `---|  |----`|  |  |  | \n        /     _    _/       |  |     |  |  |  | \n       /        |  |         |  |     |  `--'  | \n    __/         |__|         |__|      ______/  \n                                                  \nPresenting Small Encodes with quality for years!\n                                                                                                   \n                                                                                                   \n\nEntourage.2015.WEBRip.480p.x264.AAC-VYTO\n\n\nGenre: Comedy &lt;a href=&quot;\nhttp://www.imdb.com/title/tt1674771/&quot; rel=&quot;nofollow&quot; target=&quot;_NEW&quot;&gt;\nhttp://www.imdb.com/title/tt1674771/&lt;/a&gt;\n\n\nGeneral\nFormat                         : MPEG-4\nFile size                      : 376 MiB\nDuration                       : 1h 44mn\nOverall bit rate               : 504 Kbps\n\nVideo\nFormat                         : AVC\nBit rate                       : 469 Kbps\nWidth                          : 720 pixels\nHeight                         : 304 pixels\nDisplay aspect ratio           : 2.35:1\nFrame rate mode                : Constant\nFrame rate                     : 23.976 fps\nBit depth                      : 8 bits\nStream size                    : 350 MiB (93%)\nWriting library                : x264 core 148 r2597\n\nAudio\nFormat                         : AAC\nBit rate                       : 32.0 Kbps\nChannel(s)                     : 2 channels\nChannel positions              : Front: L R \nSampling rate                  : 48.0 KHz\nStream size                    : 23.9 MiB (6%)\nLanguage                       : English\n\nSubtitle                       : Yes (English)\nSource                         : 720p.WEB-DL.DD5.1.H264\n\n\nScreenshots:\n &lt;a href=&quot;\nhttp://ititli.com/hq&quot; rel=&quot;nofollow&quot; target=&quot;_NEW&quot;&gt;\nhttp://ititli.com/hq&lt;/a&gt; &lt;a href=&quot;\nhttp://ititli.com/hr&quot; rel=&quot;nofollow&quot; target=&quot;_NEW&quot;&gt;\nhttp://ititli.com/hr&lt;/a&gt; &lt;a href=&quot;\nhttp://ititli.com/h1&quot; rel=&quot;nofollow&quot; target=&quot;_NEW&quot;&gt;\nhttp://ititli.com/h1&lt;/a&gt; &lt;a href=&quot;\nhttp://ititli.com/hT&quot; rel=&quot;nofollow&quot; target=&quot;_NEW&quot;&gt;\nhttp://ititli.com/hT&lt;/a&gt; &lt;a href=&quot;\nhttp://ititli.com/hW&quot; rel=&quot;nofollow&quot; target=&quot;_NEW&quot;&gt;\nhttp://ititli.com/hW&lt;/a&gt; &lt;a href=&quot;\nhttp://ititli.com/hg&quot; rel=&quot;nofollow&quot; target=&quot;_NEW&quot;&gt;\nhttp://ititli.com/hg&lt;/a&gt; &lt;a href=&quot;\nhttp://ititli.com/hn&quot; rel=&quot;nofollow&quot; target=&quot;_NEW&quot;&gt;\nhttp://ititli.com/hn&lt;/a&gt; &lt;a href=&quot;\nhttp://ititli.com/hw&quot; rel=&quot;nofollow&quot; target=&quot;_NEW&quot;&gt;\nhttp://ititli.com/hw&lt;/a&gt; &lt;a href=&quot;\nhttp://ititli.com/h2&quot; rel=&quot;nofollow&quot; target=&quot;_NEW&quot;&gt;\nhttp://ititli.com/h2&lt;/a&gt; &lt;a href=&quot;\nhttp://ititli.com/h6&quot; rel=&quot;nofollow&quot; target=&quot;_NEW&quot;&gt;\nhttp://ititli.com/h6&lt;/a&gt; &lt;a href=&quot;\nhttp://ititli.com/h8&quot; rel=&quot;nofollow&quot; target=&quot;_NEW&quot;&gt;\nhttp://ititli.com/h8&lt;/a&gt; &lt;a href=&quot;\nhttp://ititli.com/he&quot; rel=&quot;nofollow&quot; target=&quot;_NEW&quot;&gt;\nhttp://ititli.com/he&lt;/a&gt;\n\n----------------------------------------------------------------------------------------------------\n\n\nEncoder Notes: Looking For Early Access To Anything You Can Provide DVDScr, R5, DVDR, BluRay, Direct\nAudio, Music Releases and Seedboxes. If You Got anything to offer please contact us.\n\nSupport us by donating BC - 1FgwdzPsd1y25Gea8wP1qni35uGCtmkRCD","torrent":{"xt":"urn:btih:b5de8d884f6db6223c5bb18582144c5b9597fe3a","amp;dn":"Entourage.2015.WEBRip.480p.x264.AAC-VYTO+%5BP2PDL%5D","amp;tr":["udp%3A%2F%2Ftracker.openbittorrent.com%3A80","udp%3A%2F%2Fopen.demonii.com%3A1337","udp%3A%2F%2Ftracker.coppersurfer.tk%3A6969","udp%3A%2F%2Fexodus.desync.com%3A6969"],"infoHash":"b5de8d884f6db6223c5bb18582144c5b9597fe3a","infoHashBuffer":{"type":"Buffer","data":[181,222,141,136,79,109,182,34,60,91,177,133,130,20,76,91,149,151,254,58]},"announce":[],"urlList":[]}}